<svg width="42" height="24" viewBox="0 0 42 24" fill="none" xmlns="http://www.w3.org/2000/svg">
<path d="M2.646 8.058V10.914H6.006V12.216H2.646V15.198H6.426V16.5H1.05V6.756H6.426V8.058H2.646ZM16.3858 16.5H14.7898L9.9878 9.234V16.5H8.3918V6.756H9.9878L14.7898 14.008V6.756H16.3858V16.5Z" fill="#020202"/>
<g clip-path="url(#clip0_1_484)">
<path fill-rule="evenodd" clip-rule="evenodd" d="M30.707 15.707C30.5195 15.8944 30.2652 15.9998 30 15.9998C29.7348 15.9998 29.4805 15.8944 29.293 15.707L23.636 10.05C23.5405 9.95773 23.4643 9.84739 23.4119 9.72538C23.3595 9.60338 23.3319 9.47216 23.3308 9.33938C23.3296 9.2066 23.3549 9.07492 23.4052 8.95202C23.4555 8.82913 23.5297 8.71747 23.6236 8.62358C23.7175 8.52969 23.8292 8.45544 23.9521 8.40515C24.0749 8.35487 24.2066 8.32957 24.3394 8.33073C24.4722 8.33188 24.6034 8.35947 24.7254 8.41188C24.8474 8.46428 24.9578 8.54047 25.05 8.63598L30 13.586L34.95 8.63598C35.1386 8.45382 35.3912 8.35302 35.6534 8.3553C35.9156 8.35758 36.1664 8.46275 36.3518 8.64816C36.5372 8.83357 36.6424 9.08438 36.6447 9.34658C36.647 9.60877 36.5462 9.86137 36.364 10.05L30.707 15.707Z" fill="#020202"/>
</g>
<defs>
<clipPath id="clip0_1_484">
<rect width="24" height="24" fill="white" transform="translate(18)"/>
</clipPath>
</defs>
</svg>
